<svg version="1.1" id="Layer_1" xmlns="http://www.w3.org/2000/svg" xmlns:xlink="http://www.w3.org/1999/xlink" x="0px" y="0px"
	 width="100%" viewBox="0 0 480 480" enable-background="new 0 0 480 480" xml:space="preserve">
<path fill="#000000" opacity="1.000000" stroke="none" 
	d="
M243.454102,481.000000 
	C238.706787,473.490723 234.418350,465.978729 230.117279,458.473969 
	C228.942261,456.423737 227.082336,455.703979 224.791382,455.285187 
	C163.126923,444.012817 117.397476,400.067505 105.066025,338.733917 
	C90.258583,265.085388 129.488327,192.277298 204.107300,167.597519 
	C211.375763,165.193527 211.540848,164.980499 209.758545,157.951706 
	C199.207321,158.436356 188.857407,160.738708 178.480362,162.808914 
	C174.241333,163.654602 170.010635,164.579269 165.832886,165.682800 
	C162.587219,166.540115 160.224152,165.470795 158.615509,162.778488 
	C157.010422,160.092117 157.075485,157.185501 159.285538,154.916183 
	C166.724686,147.277451 174.320663,139.791611 181.837936,132.228683 
	C183.573898,130.482193 185.752838,130.646378 187.917404,130.645386 
	C200.083221,130.639771 212.251007,130.504715 224.413742,130.694214 
	C228.462128,130.757294 229.987015,129.523422 229.945480,125.311775 
	C229.761398,106.648132 229.806274,87.981644 229.882645,69.316643 
	C229.895096,66.275978 229.145752,63.944828 226.772415,61.860668 
	C223.746765,59.203682 221.496689,55.870407 220.341202,51.914799 
	C218.933655,47.096294 219.363693,42.850723 223.334366,39.153004 
	C229.551315,33.363422 235.476959,27.262304 241.630539,21.402954 
	C245.716644,17.512238 248.682556,17.501547 252.943375,21.407717 
	C258.347046,26.361618 263.601288,31.479092 268.897552,36.549442 
	C276.799377,44.114216 278.008698,50.886803 270.726562,59.108875 
	C265.814880,64.654526 265.222565,70.251099 265.292786,76.823837 
	C265.467285,93.154213 265.460358,109.488983 265.268860,125.818970 
	C265.224762,129.578598 266.409149,130.738007 270.090576,130.691650 
	C282.754272,130.532242 295.422363,130.735657 308.086395,130.591049 
	C311.692322,130.549881 314.437378,131.605255 316.943512,134.206619 
	C323.069366,140.565231 329.384888,146.741272 335.631805,152.983032 
	C338.212372,155.561478 340.497986,158.284668 338.360443,162.176880 
	C336.142822,166.214890 332.863739,166.568207 328.566681,165.432617 
	C315.705597,162.033844 302.603088,159.727966 289.451538,157.739502 
	C287.584412,157.457214 285.120422,156.395035 284.643463,159.427048 
	C284.218231,162.130280 283.588257,165.232727 287.477814,166.373703 
	C294.034332,168.297028 300.433990,170.636612 306.636139,173.531677 
	C352.559021,194.967789 381.507080,230.470856 390.767548,280.139221 
	C406.556793,364.824646 353.075348,439.848633 271.906158,455.176483 
	C268.409729,455.836731 266.220428,457.342377 264.576202,460.351166 
	C260.904785,467.069519 257.057953,473.692047 253.141296,480.676819 
	C249.969406,481.000000 246.938812,481.000000 243.454102,481.000000 
M240.727386,187.500031 
	C240.712326,178.501999 240.716019,169.503845 240.663284,160.506027 
	C240.654755,159.051376 241.210068,157.042419 239.744629,156.326279 
	C236.006958,154.499725 231.874329,155.060928 228.045975,155.858047 
	C225.177826,156.455261 226.373978,159.496811 226.372452,161.466476 
	C226.313217,237.951797 226.620377,314.439331 226.061996,390.920654 
	C225.949158,406.376923 227.847168,420.452759 236.391968,433.549805 
	C240.618591,440.028198 243.763870,447.212067 247.983810,455.182373 
	C253.550476,444.581116 258.254913,434.883209 263.648956,425.585358 
	C267.891510,418.272339 269.223663,410.813477 269.183716,402.365265 
	C268.871460,336.379486 268.988037,270.391693 268.968658,204.404541 
	C268.964417,189.907425 268.965088,175.410217 268.909302,160.913269 
	C268.902527,159.154953 269.550507,156.647980 267.527985,155.972458 
	C263.875153,154.752365 259.834808,154.800522 256.203644,155.819412 
	C253.021500,156.712311 254.385727,160.102936 254.383789,162.395569 
	C254.316360,242.546814 254.323593,322.698120 254.314880,402.849426 
	C254.314697,404.514771 254.559555,406.259674 254.154022,407.828949 
	C253.297989,411.141541 251.384781,414.452057 248.420166,415.595795 
	C245.314438,416.793915 244.728165,412.598206 242.947693,410.866852 
	C240.527649,408.513580 240.738464,405.479645 240.738815,402.459045 
	C240.747131,331.139374 240.735123,259.819702 240.727386,187.500031 
M127.389793,263.801697 
	C123.855049,273.689514 121.898392,283.945465 120.498535,294.305939 
	C120.119225,297.113220 119.283325,300.771240 124.130531,300.794281 
	C135.100098,300.846497 146.070084,300.799103 157.039871,300.817841 
	C159.486176,300.822021 160.574142,299.748749 160.736511,297.232910 
	C161.611893,283.669281 162.706589,270.127869 165.554977,256.793915 
	C166.215179,253.703247 165.059021,252.133514 161.639206,252.209122 
	C155.492477,252.345001 149.338272,252.127319 143.190735,252.244324 
	C129.696930,252.501114 132.895935,249.665878 127.389793,263.801697 
M135.182785,365.677979 
	C145.402130,365.677979 155.621475,365.677979 165.799927,365.677979 
	C165.954834,364.292236 166.131439,363.786926 166.044769,363.331757 
	C163.374619,349.305420 161.549271,335.171112 160.752762,320.915680 
	C160.570343,317.650879 158.610931,317.241333 156.040237,317.241669 
	C145.900085,317.242950 135.754074,317.399109 125.622383,317.094452 
	C120.917709,316.953033 119.790382,318.976715 120.391525,323.076691 
	C122.347946,336.420135 125.339737,349.481293 130.816055,361.876099 
	C131.548386,363.533630 132.087616,365.396393 135.182785,365.677979 
M347.523041,300.855927 
	C355.181732,300.859131 362.840851,300.818481 370.498962,300.886322 
	C373.729248,300.914886 375.510254,299.960693 375.165710,296.247406 
	C373.864197,282.220825 370.309937,268.807983 364.833557,255.846909 
	C363.673126,253.100494 362.021057,252.144211 359.138397,252.189362 
	C350.982361,252.317093 342.820068,252.346786 334.665863,252.165146 
	C330.724854,252.077347 329.358246,253.171005 330.195190,257.376923 
	C332.267548,267.791412 334.024200,278.281372 334.319519,288.935547 
	C334.649292,300.835541 334.604279,300.836792 347.523041,300.855927 
M333.662567,336.950714 
	C333.302826,346.371979 330.783112,355.535919 329.760071,365.695099 
	C339.408142,365.695099 348.517853,365.445038 357.603485,365.804840 
	C361.888916,365.974548 363.884705,364.199097 365.401917,360.567078 
	C370.629852,348.052399 373.785492,335.052338 375.349670,321.600891 
	C375.775177,317.941345 373.977814,317.239471 371.074341,317.240845 
	C360.587830,317.245789 350.100677,317.316040 339.615143,317.218323 
	C336.431183,317.188690 335.072693,318.636658 334.872040,321.626831 
	C334.549438,326.433746 334.179047,331.237518 333.662567,336.950714 
M182.826782,300.863129 
	C190.484894,300.861694 198.143127,300.834076 205.801025,300.872498 
	C208.610550,300.886597 210.730957,300.361420 210.718109,296.846710 
	C210.668167,283.195679 210.681915,269.544250 210.717575,255.893127 
	C210.724060,253.409271 209.691879,252.216949 207.154388,252.230423 
	C200.329086,252.266632 193.503189,252.266617 186.678070,252.211411 
	C184.314926,252.192307 182.912933,253.194000 182.428177,255.511398 
	C179.633377,268.872040 177.938629,282.367462 177.328552,296.006195 
	C177.178909,299.351379 178.443466,301.078064 182.826782,300.863129 
M191.514801,317.199554 
	C188.688492,317.199158 185.850281,317.363464 183.038666,317.159882 
	C178.777725,316.851410 177.017471,318.452423 177.271439,322.895233 
	C178.020798,336.003815 179.663086,348.976318 182.486069,361.795685 
	C182.973053,364.007111 183.859512,365.772003 186.738754,365.717255 
	C193.552521,365.587708 200.370819,365.639740 207.186569,365.698669 
	C209.729263,365.720642 210.792221,364.555450 210.787384,362.082184 
	C210.760666,348.449677 210.730362,334.816925 210.792328,321.184662 
	C210.806412,318.089783 209.306168,317.136139 206.473312,317.189728 
	C201.820023,317.277771 197.163712,317.204987 191.514801,317.199554 
M294.566132,300.874146 
	C300.881683,300.863525 307.198853,300.762390 313.512115,300.877594 
	C317.068909,300.942474 318.904816,299.523224 318.619049,295.894379 
	C317.564941,282.509644 316.445831,269.131958 313.344147,256.016083 
	C312.719727,253.375626 311.223022,252.163834 308.400360,252.213623 
	C302.087067,252.324982 295.766113,252.352386 289.456024,252.159576 
	C285.699158,252.044800 284.348267,253.826675 284.446899,257.256165 
	C284.604462,262.734467 284.853271,268.211548 284.914307,273.690826 
	C284.997559,281.168854 285.001251,288.649170 284.916199,296.127075 
	C284.878540,299.434418 286.110657,301.154633 289.604370,300.878174 
	C290.925354,300.773621 292.262146,300.868805 294.566132,300.874146 
M317.658813,335.310394 
	C317.985931,330.840179 318.295349,326.368561 318.645874,321.900177 
	C318.916809,318.445801 317.291534,317.148773 313.916199,317.192871 
	C305.928070,317.297180 297.935486,317.312256 289.948669,317.158417 
	C286.340332,317.088959 284.863190,318.446442 284.894562,322.113373 
	C285.005615,335.095642 284.986176,348.079773 284.900391,361.062439 
	C284.878052,364.439941 286.146301,365.863739 289.621765,365.755493 
	C295.442078,365.574249 301.287109,365.443359 307.092834,365.783997 
	C311.373077,366.035187 312.890594,364.094849 313.716888,360.279785 
	C315.440613,352.321045 316.620483,344.290131 317.658813,335.310394 
M143.508896,382.565430 
	C142.595078,384.348358 144.100204,385.358673 144.888077,386.491669 
	C149.942032,393.759277 155.735489,400.421021 162.424133,406.200897 
	C170.674225,413.330048 179.341232,419.914764 189.917969,424.618317 
	C189.607819,423.500458 189.567917,423.005890 189.347366,422.612671 
	C182.592896,410.570038 176.264008,398.332184 172.130066,385.089630 
	C171.408798,382.779175 169.756699,382.108887 167.544449,382.126770 
	C159.733322,382.189941 151.921921,382.215881 143.508896,382.565430 
M310.136719,195.619720 
	C308.750336,195.262741 307.654999,193.979004 305.710480,194.322708 
	C313.182617,206.694397 319.434631,219.468018 324.078430,232.990631 
	C324.536194,234.323578 325.178253,235.548447 326.746490,235.556793 
	C335.456757,235.603134 344.167419,235.579010 354.203979,235.579010 
	C342.341797,218.089691 328.005035,205.438385 310.136719,195.619720 
M344.358704,382.111176 
	C339.364227,382.097870 334.363739,382.229218 329.377411,382.020721 
	C326.018860,381.880310 324.319336,383.148895 323.245972,386.390320 
	C319.154480,398.746277 313.687469,410.497009 306.976715,421.663879 
	C306.559265,422.358490 305.360626,423.057465 306.782928,424.553192 
	C325.459778,414.405182 341.496765,401.405243 353.513550,382.106934 
	C349.923615,382.106934 347.610840,382.106934 344.358704,382.111176 
M165.407806,208.917709 
	C156.689316,216.714539 148.221497,224.729858 141.390289,235.655975 
	C150.940201,235.655975 159.360489,235.662567 167.780746,235.651810 
	C170.183914,235.648743 171.135620,234.123169 171.895462,232.051300 
	C173.836349,226.759018 176.026367,221.558746 178.040665,216.292572 
	C180.960083,208.660019 185.448425,201.790024 189.662903,193.751801 
	C180.171646,197.558365 173.083176,203.041595 165.407806,208.917709 
M198.161835,212.606888 
	C194.272263,219.680847 190.584091,226.839752 188.307632,234.852219 
	C192.108856,236.279465 195.619522,235.689117 199.034424,235.666138 
	C212.542511,235.575256 210.529953,237.480087 210.698242,224.130768 
	C210.814362,214.920868 210.720551,205.708313 210.720551,195.255493 
	C205.023392,200.871536 201.820343,206.457611 198.161835,212.606888 
M211.506638,414.084229 
	C211.340271,405.094330 211.192123,396.104004 210.994171,387.114807 
	C210.947220,384.982239 211.228638,382.342133 208.087509,382.263672 
	C201.829926,382.107300 195.565704,382.217346 188.482880,382.217346 
	C193.643372,398.235535 201.082611,411.802765 211.953583,423.478577 
	C211.247696,420.592926 211.746292,417.739380 211.506638,414.084229 
M287.872986,198.824478 
	C287.031647,197.860641 286.190338,196.896805 284.704865,195.195038 
	C284.704865,207.974442 284.711823,219.741730 284.700226,231.509003 
	C284.697083,234.690445 286.246307,235.889954 289.394562,235.754654 
	C293.550446,235.576050 297.720367,235.755798 301.883209,235.701736 
	C306.981995,235.635529 307.505920,234.891083 305.639771,230.128250 
	C301.301727,219.056503 295.452332,208.825760 287.872986,198.824478 
M291.719269,382.085785 
	C289.346924,382.914032 284.988586,379.892975 284.916290,385.153900 
	C284.748474,397.367706 284.862854,409.585358 284.862854,422.730530 
	C294.845123,411.385986 301.498993,399.110931 306.294342,385.756989 
	C307.118164,383.462769 305.952728,382.254303 303.616974,382.207428 
	C299.964081,382.134125 296.309723,382.131226 291.719269,382.085785 
z"/>
</svg>