<svg version="1.1" id="Layer_1" xmlns="http://www.w3.org/2000/svg" xmlns:xlink="http://www.w3.org/1999/xlink" x="0px" y="0px"
	 width="100%" viewBox="0 0 944 528" enable-background="new 0 0 944 528" xml:space="preserve">
<path fill="#000000" opacity="1.000000" stroke="none" 
	d="
M497.468262,529.000000 
	C486.711273,524.153992 475.525330,522.018066 464.838440,518.372070 
	C460.432617,516.869019 455.921204,515.678040 451.495483,514.229980 
	C441.650421,511.008667 439.665466,507.862946 440.766449,497.611145 
	C441.687286,489.036835 442.525208,480.453400 443.492462,471.884460 
	C443.779266,469.343689 443.048431,467.384949 441.220215,465.614899 
	C433.183838,457.834412 423.389008,452.182648 415.480469,444.234467 
	C413.462830,442.206665 410.722382,443.100250 408.343689,443.786163 
	C399.712463,446.274933 391.102417,448.839813 382.509674,451.458923 
	C373.298737,454.266479 368.657684,452.710663 363.786896,444.342560 
	C360.354980,438.446503 357.428711,432.255280 354.299164,426.184265 
	C349.489899,416.854736 344.641846,407.544525 339.920898,398.170380 
	C336.349731,391.079407 337.543884,386.313019 344.147675,381.820862 
	C352.687012,376.012054 361.306305,370.315857 370.004944,364.748962 
	C372.886658,362.904724 373.942413,360.558777 373.892426,357.274139 
	C373.745453,347.612885 373.671600,337.949097 373.719238,328.287048 
	C373.734863,325.119141 372.619873,323.084320 369.810852,321.425781 
	C362.928650,317.362488 356.178650,313.063873 349.506531,308.661346 
	C346.438782,306.637085 344.535156,307.037018 341.992737,309.827637 
	C302.848969,352.792877 263.640503,395.699738 224.276260,438.462952 
	C216.852097,446.528198 209.636032,454.779724 201.341095,462.096008 
	C190.710938,471.471985 178.243378,474.469452 164.837952,474.192657 
	C150.295624,473.892365 136.587341,470.316650 124.898338,460.864685 
	C111.997490,450.432739 104.882156,436.921173 103.662338,420.538055 
	C102.061073,399.031677 111.078529,382.015289 126.556862,367.633972 
	C140.586807,354.598450 154.123032,341.031219 167.865448,327.686584 
	C202.518234,294.036926 236.984329,260.192200 271.885315,226.801987 
	C290.911743,208.599152 309.355316,189.822784 328.189819,171.436234 
	C331.319550,168.380951 332.236816,165.344025 330.982117,161.176620 
	C327.905640,150.958069 326.061890,140.427582 325.796326,129.806503 
	C325.096436,101.817825 335.058197,77.384453 352.010254,55.579845 
	C371.693085,30.262796 398.246185,17.032104 429.511993,12.831374 
	C446.765167,10.513319 463.970642,12.855058 481.101013,15.159958 
	C483.405914,15.470082 485.766724,15.542470 488.011017,16.093779 
	C496.868652,18.269615 500.008209,27.682461 493.763885,34.305397 
	C482.225464,46.543438 470.474304,58.588940 458.561188,70.463272 
	C447.589813,81.398941 436.289581,92.004677 425.133636,102.755150 
	C423.101562,104.713387 422.339417,106.688354 422.947998,109.829926 
	C424.854523,119.671356 427.804657,129.147629 431.259888,138.525040 
	C432.467499,141.802536 434.490479,143.765335 437.625916,145.002533 
	C447.233063,148.793381 456.996094,152.096649 466.899292,155.034729 
	C470.541321,156.115265 473.057373,155.386414 475.833313,152.758713 
	C490.716339,138.670532 505.022400,124.016434 519.331787,109.355820 
	C526.306824,102.209595 533.839966,95.610298 540.885193,88.529373 
	C544.619568,84.776085 548.882141,83.817551 553.674194,85.072266 
	C558.502197,86.336403 560.267639,90.361740 561.174927,94.793404 
	C566.696716,121.765762 565.339294,148.346710 556.515259,174.481995 
	C553.171631,184.385117 553.349854,183.829895 563.528625,185.812424 
	C571.471802,187.359528 576.061523,184.874039 580.427307,178.477188 
	C584.809753,172.056046 590.323669,166.353485 595.704712,160.680267 
	C603.465454,152.498016 607.063782,152.370667 616.235535,159.326553 
	C627.252319,167.681625 638.112366,176.246323 649.218079,184.480423 
	C663.309631,194.928314 663.911743,196.959549 656.634155,212.964066 
	C654.359680,217.966003 652.449280,223.133759 650.163818,228.130295 
	C648.549805,231.658936 648.762390,234.740128 650.992981,237.963242 
	C656.686035,246.189835 662.100220,254.601852 665.830566,263.949829 
	C666.791687,266.358368 668.533752,267.000763 670.911377,267.123474 
	C679.715576,267.577972 688.508179,268.352722 697.316406,268.589905 
	C701.182495,268.694000 704.958374,269.274689 708.686401,269.939484 
	C713.566345,270.809662 716.384216,274.174652 717.365906,279.101654 
	C720.317810,293.915985 723.330811,308.718140 726.325195,323.523987 
	C726.654053,325.150085 727.000549,326.772919 727.365967,328.391174 
	C729.296265,336.941284 727.178040,341.153900 718.976746,344.395905 
	C708.914734,348.373474 698.854431,352.376038 688.654907,355.975403 
	C684.440002,357.462830 681.944580,359.628693 681.098511,364.154419 
	C679.291321,373.821198 676.025635,383.100220 672.625671,392.297668 
	C671.466797,395.432495 672.011780,397.495789 674.284180,399.807373 
	C680.237976,405.863861 685.931458,412.175232 691.800476,418.316345 
	C700.077332,426.976929 700.540222,431.115662 693.235291,440.317291 
	C682.984802,453.229279 672.777344,466.200104 661.947144,478.618744 
	C654.462219,487.201508 651.540039,487.256958 641.446838,482.288696 
	C633.078308,478.169403 624.627502,474.193939 616.444397,469.730682 
	C611.883789,467.243256 607.997253,467.166473 603.334351,469.552856 
	C595.796936,473.410431 588.570251,477.839325 580.481018,480.727570 
	C567.966858,485.195679 555.076477,487.250885 541.961304,488.242004 
	C536.078125,488.686615 532.202026,490.762848 529.922485,496.716705 
	C525.819458,507.433167 520.914368,517.842529 516.172180,528.690063 
	C509.978851,529.000000 503.957703,529.000000 497.468262,529.000000 
M415.129578,147.304153 
	C410.142120,134.912323 406.627869,122.077820 404.012268,109.011505 
	C402.746185,102.686462 403.959534,97.142281 409.065247,92.234535 
	C427.193665,74.809044 444.991669,57.039692 462.897095,39.382603 
	C464.608521,37.694912 466.438721,36.036270 467.126312,33.007042 
	C454.898041,30.294098 442.971863,29.486261 430.827148,31.253166 
	C391.559479,36.966129 365.507812,59.141220 351.061401,95.491844 
	C343.064514,115.613876 343.974609,136.297318 349.538757,156.739365 
	C352.758392,168.567871 350.868164,177.235062 341.200989,185.907608 
	C323.740173,201.571869 307.803406,218.922852 290.980255,235.312912 
	C265.563568,260.075348 239.947678,284.633484 214.388351,309.249207 
	C188.589539,334.095612 162.724075,358.872894 136.960968,383.756165 
	C130.444931,390.049744 126.336716,398.008911 124.370422,406.659241 
	C120.588356,423.297638 127.854492,440.061798 142.011642,449.687805 
	C153.356445,457.401581 178.447372,458.453918 188.020554,448.140594 
	C191.845963,444.019379 195.738419,439.900513 199.711380,435.892456 
	C223.049881,412.347870 244.951950,387.464447 267.263916,362.977020 
	C289.914520,338.117950 312.648651,313.338135 335.773224,288.927887 
	C354.102264,269.579742 373.886780,251.614853 391.646606,231.731506 
	C399.135956,223.346634 407.039886,221.716751 417.478882,224.602432 
	C435.072235,229.465759 453.073944,229.511200 470.809723,225.439606 
	C493.373993,220.259537 512.646484,209.309357 526.776550,190.453323 
	C536.802490,177.074081 541.939209,161.695663 544.652954,145.399933 
	C546.422974,134.771439 547.138062,124.112885 545.230347,112.369713 
	C541.096497,115.964111 537.482727,118.800087 534.220215,121.994781 
	C518.037231,137.841599 501.958099,153.794403 485.815216,169.682266 
	C482.304199,173.137802 478.120270,174.871277 473.113495,174.050171 
	C458.791077,171.701355 444.903687,167.682251 431.206665,162.979340 
	C423.716553,160.407593 417.014343,156.878601 415.129578,147.304153 
M588.106262,283.391235 
	C569.475098,264.035217 547.020081,254.532196 519.951355,257.056641 
	C474.448547,261.300323 439.995270,303.111572 447.234314,349.515625 
	C452.704498,384.580688 482.483154,413.435394 520.241760,416.588196 
	C542.114319,418.414520 561.731873,412.169067 578.784668,398.317108 
	C595.680786,384.592316 606.118286,366.897064 608.457336,345.264252 
	C610.961670,322.103363 603.959229,301.531616 588.106262,283.391235 
z"/>
<path fill="#000000" opacity="1.000000" stroke="none" 
	d="
M729.289307,84.958115 
	C713.013184,98.185013 697.861877,112.205063 680.895386,123.981331 
	C677.322449,126.461243 673.668213,128.735077 669.654541,130.362839 
	C665.291931,132.132126 661.310547,130.988022 658.410339,127.550812 
	C655.601440,124.221924 655.552734,120.263931 657.664551,116.371025 
	C659.055603,113.806770 661.228149,112.028793 663.546326,110.373848 
	C671.269165,104.860512 678.418579,98.696938 685.415771,92.266167 
	C695.276917,83.203285 707.243164,77.140167 718.954346,70.851357 
	C722.694519,68.842896 726.632263,69.872078 729.313110,73.168633 
	C732.229004,76.754158 732.277954,80.774071 729.289307,84.958115 
z"/>
<path fill="#000000" opacity="1.000000" stroke="none" 
	d="
M626.550171,87.621979 
	C623.199951,90.950905 619.845459,93.191872 615.197144,91.333549 
	C612.074524,90.085152 610.521851,87.693016 610.252808,84.453583 
	C610.158508,83.317741 610.264526,82.104317 610.566895,81.005501 
	C616.366638,59.927517 627.232727,41.619671 641.316956,25.100031 
	C644.216003,21.699629 647.909180,20.735041 652.110840,22.392267 
	C656.331421,24.056978 658.158813,27.786415 656.626587,32.064331 
	C655.681274,34.703884 654.295227,37.200695 652.961365,39.683289 
	C648.309509,48.341335 644.239502,57.270164 640.893921,66.499420 
	C637.928406,74.680206 633.116760,81.504715 626.550171,87.621979 
z"/>
<path fill="#000000" opacity="1.000000" stroke="none" 
	d="
M694.516113,164.937378 
	C695.916809,161.984497 698.060425,160.495636 700.766174,159.845490 
	C715.747314,156.245743 730.496765,151.574661 745.961792,150.210526 
	C750.989014,149.767075 755.277405,152.342407 756.288940,156.735413 
	C757.553345,162.226013 755.342773,166.725494 749.989746,167.956726 
	C735.291199,171.337540 720.872498,176.003983 705.793091,177.673676 
	C697.684753,178.571457 692.955872,173.519547 694.516113,164.937378 
z"/>
<path fill="#000000" opacity="1.000000" stroke="none" 
	d="
M178.750183,390.017975 
	C183.898300,393.532990 188.519821,396.983124 191.102448,402.568787 
	C197.855286,417.173676 191.083481,432.397003 175.635132,437.074768 
	C160.028992,441.800293 142.072144,430.386322 139.617584,414.180847 
	C136.849426,395.904755 156.907227,381.348602 175.279236,388.315979 
	C176.364334,388.727509 177.382172,389.316345 178.750183,390.017975 
M173.365219,407.221039 
	C172.017105,405.682678 170.394852,404.614746 168.366592,404.167969 
	C164.586349,403.335297 161.521576,404.791077 158.939987,407.316589 
	C156.654068,409.552917 156.648758,412.447662 157.707108,415.204407 
	C159.374878,419.548676 166.542953,421.951172 170.953415,419.826965 
	C175.701035,417.540436 176.795776,412.969025 173.365219,407.221039 
z"/>
</svg>