<svg version="1.1" id="Layer_1" xmlns="http://www.w3.org/2000/svg" xmlns:xlink="http://www.w3.org/1999/xlink" x="0px" y="0px"
	 width="100%" viewBox="0 0 944 528" enable-background="new 0 0 944 528" xml:space="preserve">
<path fill="#000000" opacity="1.000000" stroke="none" 
	d="
M593.460632,529.000000 
	C580.041565,522.557373 566.920471,516.419861 554.155579,509.614319 
	C517.689026,490.172363 482.044617,469.272400 446.569794,448.089661 
	C441.148041,444.852203 436.087677,440.997375 430.939789,437.316742 
	C425.006622,433.074677 422.903320,425.514709 425.288483,417.067719 
	C427.154602,410.458862 430.102142,404.272736 433.423096,398.307678 
	C460.096069,350.397583 488.415192,303.478821 518.445923,257.596283 
	C519.448730,256.064117 520.533020,254.582947 521.625366,253.112183 
	C530.129761,241.661453 537.428406,239.782181 550.510437,245.667694 
	C558.433960,249.232437 565.685791,254.012421 573.224243,258.271362 
	C603.245972,275.232605 633.614563,291.607056 662.922974,309.787231 
	C675.070190,317.322205 687.441772,324.622162 698.432556,333.924164 
	C713.233765,346.451019 714.964294,356.034760 705.047668,372.620026 
	C686.409058,403.792633 667.686340,434.915039 649.060303,466.095184 
	C640.004395,481.254700 631.206665,496.569458 622.054260,511.669769 
	C617.898560,518.526184 613.112610,524.980774 605.248047,528.771851 
	C601.307068,529.000000 597.614197,529.000000 593.460632,529.000000 
M525.956116,467.441864 
	C546.702759,479.843231 567.947571,491.329865 589.949402,501.333710 
	C599.886475,505.851868 598.298462,507.627136 605.067932,496.291046 
	C620.868652,469.831329 636.347473,443.179413 651.972229,416.614532 
	C662.951294,397.948273 673.907593,379.268250 684.996460,360.667389 
	C686.870544,357.523804 686.890747,355.322601 683.712219,353.096222 
	C679.896790,350.423798 676.463928,347.198181 672.611206,344.587250 
	C632.820618,317.622040 590.806519,294.499268 548.019653,272.723969 
	C540.106812,268.696930 540.071045,268.747009 535.002869,276.349762 
	C516.791138,303.669403 499.727386,331.699829 483.254181,360.092957 
	C472.721771,378.246490 462.325073,396.479004 451.741364,414.602417 
	C449.652893,418.178741 450.558411,420.541748 453.787048,422.466461 
	C457.807007,424.862915 461.463409,427.737671 465.118103,430.646118 
	C483.618958,445.369415 505.020599,455.312256 525.956116,467.441864 
z"/>
<path fill="#000000" opacity="1.000000" stroke="none" 
	d="
M346.806824,104.823761 
	C366.138977,83.413307 385.241791,62.274029 404.345581,41.135628 
	C405.239471,40.146511 406.343262,39.284641 407.009460,38.161873 
	C413.490906,27.239122 423.814545,23.229519 435.674286,20.597033 
	C461.320953,14.904283 487.034027,9.604821 512.884949,4.961011 
	C521.497070,3.413955 528.626282,9.914899 527.085022,18.331232 
	C521.615479,48.197716 515.843750,78.008850 510.189514,107.841522 
	C509.226349,112.923355 506.612000,117.030975 503.026855,120.696556 
	C446.394165,178.600266 388.140198,234.869690 330.537628,291.795166 
	C315.844757,306.315369 300.807159,320.486511 285.955841,334.846893 
	C284.421600,336.330414 282.635010,337.641235 281.266052,341.010040 
	C285.698303,345.199677 290.577087,349.662354 295.285339,354.298248 
	C301.697449,360.611725 308.105499,366.938446 314.279694,373.481781 
	C319.800079,379.332245 319.909668,385.382416 314.449860,391.222321 
	C304.433167,401.936218 293.910065,412.157837 282.474335,421.366180 
	C275.401337,427.061523 271.381561,426.639832 265.447815,419.818268 
	C255.382614,408.247070 244.872498,397.099731 233.993317,386.297272 
	C232.115082,384.432281 230.083679,382.721558 227.789886,380.636810 
	C225.332199,382.546936 222.799698,384.132538 220.729950,386.184875 
	C205.340485,401.444916 188.867966,415.494354 172.437317,429.590576 
	C170.717743,431.065826 170.429840,432.826874 170.317749,434.908875 
	C168.947830,460.351837 149.774567,479.406708 126.354416,481.347107 
	C104.686699,483.142365 83.725548,468.341156 78.278519,446.465881 
	C71.826515,420.554596 83.954338,395.031586 109.953423,387.412079 
	C115.286736,385.849030 120.740456,385.472473 126.255814,385.710175 
	C128.506226,385.807129 130.352142,385.473236 131.920090,383.428711 
	C144.694382,366.771820 157.512039,350.146942 170.482376,333.642639 
	C173.411942,329.914886 173.248260,327.424011 169.770126,323.986603 
	C157.208649,311.572327 144.986298,298.814880 132.642578,286.180450 
	C131.245621,284.750610 129.830017,283.331909 128.526871,281.818634 
	C120.599312,272.612732 120.399719,266.716125 128.579514,257.731720 
	C137.324020,248.127075 146.187485,238.601669 156.083420,230.124832 
	C162.444077,224.676315 166.100601,224.610825 172.093933,230.457581 
	C183.545700,241.629318 194.842484,252.959854 206.214874,264.213074 
	C207.024643,265.014374 207.716202,266.039001 209.488007,266.131958 
	C254.090469,211.753769 299.480499,157.695251 346.806824,104.823761 
M239.592422,296.899658 
	C247.388504,304.655548 255.279785,312.319275 262.927063,320.219208 
	C265.471771,322.848022 267.484497,323.130035 269.973816,320.476746 
	C270.996552,319.386658 272.216461,318.484436 273.285980,317.434906 
	C295.995483,295.149933 318.690948,272.850647 341.400330,250.565552 
	C367.799988,224.659103 394.323944,198.878036 420.580627,172.827545 
	C442.107361,151.469879 463.282318,129.757980 484.716705,108.306541 
	C487.930359,105.090317 489.770050,101.468742 490.554626,97.074600 
	C492.887207,84.010635 495.286011,70.958069 497.743195,57.916924 
	C499.424957,48.991268 501.027130,40.061012 502.023926,30.623459 
	C478.550140,34.591022 455.899750,39.894279 433.120850,44.548107 
	C430.713959,45.039848 429.168030,46.742195 427.609467,48.577827 
	C407.991516,71.683395 387.204254,93.753937 367.037842,116.371452 
	C347.751587,138.001831 329.104584,160.179321 309.786865,181.778015 
	C292.361694,201.260696 275.537262,221.285767 258.650085,241.242737 
	C248.109955,253.698883 237.982758,266.503693 227.581299,279.078491 
	C225.333862,281.795502 225.326477,283.856262 228.084045,286.220337 
	C231.874832,289.470184 235.428223,292.996918 239.592422,296.899658 
M261.452118,350.047333 
	C249.000275,337.061768 235.761200,324.878479 222.959167,312.251709 
	C204.349075,293.896423 185.561859,275.706146 167.798523,256.516327 
	C164.846680,253.327438 162.627655,252.938751 159.703232,256.223053 
	C157.492157,258.706207 154.973343,260.912354 152.682846,263.328430 
	C147.228912,269.081329 147.231705,269.120575 152.798981,274.867340 
	C190.223175,313.497955 229.370804,350.414276 266.583801,389.254761 
	C269.189056,391.973938 271.681030,394.801666 274.338806,397.702393 
	C279.480011,393.366180 283.724609,389.352295 288.419281,385.961548 
	C292.296082,383.161469 291.668213,381.156097 288.708771,378.178009 
	C279.672272,369.084564 270.845459,359.782715 261.452118,350.047333 
M123.423042,459.986542 
	C126.962173,459.845734 130.301712,458.769653 133.546295,457.523468 
	C145.250351,453.028168 153.456360,436.950439 149.088287,425.359863 
	C145.528290,415.913452 138.624390,409.098755 128.090637,407.449951 
	C117.597610,405.807495 108.559784,409.070465 101.962830,417.430298 
	C95.599068,425.494598 95.668510,434.892822 99.256393,443.886749 
	C103.318687,454.070007 111.736053,459.014008 123.423042,459.986542 
M188.036545,347.755157 
	C176.943268,361.913849 165.062897,375.447723 154.478531,390.009308 
	C153.164322,391.817322 151.047119,393.545380 153.232101,396.119293 
	C156.660202,400.157593 160.073944,404.208099 163.544937,408.313995 
	C164.335037,407.980865 165.061554,407.867493 165.516479,407.454773 
	C180.074478,394.247498 194.606461,381.011536 209.141479,367.778900 
	C211.142670,365.957062 211.176575,364.152618 209.200272,362.242950 
	C203.808334,357.032867 198.382370,351.854645 193.116165,346.519379 
	C190.973862,344.348969 189.741364,345.344116 188.036545,347.755157 
z"/>
<path fill="#000000" opacity="1.000000" stroke="none" 
	d="
M678.526978,236.504944 
	C674.329773,241.925400 670.468933,247.207077 665.153564,251.067596 
	C661.737549,253.548645 657.801819,256.010223 653.719849,252.962219 
	C649.647888,249.921738 649.327942,245.305923 650.704468,240.681610 
	C654.678589,227.330597 660.728210,214.950333 668.548523,203.441833 
	C696.787476,161.885315 734.219910,131.691620 780.906860,113.148140 
	C792.537170,108.528694 804.727356,105.836754 817.361450,105.699379 
	C820.932678,105.660553 824.343872,106.395638 827.512573,107.944061 
	C831.907776,110.091843 832.802368,114.525711 829.595154,118.298065 
	C826.396912,122.059715 822.083984,124.318298 817.715942,126.404900 
	C796.211121,136.677689 774.931580,147.364502 755.153809,160.770493 
	C730.273193,177.635315 709.059021,198.429642 690.190674,221.708740 
	C686.311768,226.494385 682.556152,231.379929 678.526978,236.504944 
z"/>
<path fill="#000000" opacity="1.000000" stroke="none" 
	d="
M607.849609,201.688568 
	C607.058228,203.576065 606.602661,205.223129 605.738464,206.616760 
	C602.566223,211.732162 597.160217,211.561417 593.678406,206.186462 
	C589.393677,199.571960 588.530823,191.931168 589.283142,184.522888 
	C594.577209,132.394638 619.976929,92.922768 665.029114,66.207375 
	C670.449097,62.993389 676.403992,60.719372 682.683716,59.456829 
	C686.200317,58.749809 689.412048,58.801041 691.581116,62.083618 
	C693.780212,65.411522 693.933105,68.962479 691.929077,72.481606 
	C689.478821,76.784386 685.708862,79.837891 681.876343,82.786163 
	C648.081299,108.784317 626.217346,142.753143 614.324524,183.464783 
	C612.555725,189.519791 610.123291,195.380966 607.849609,201.688568 
z"/>
<path fill="#000000" opacity="1.000000" stroke="none" 
	d="
M800.085999,268.145508 
	C782.794434,273.753937 767.312622,282.083679 752.551514,291.880585 
	C746.189331,296.103149 740.110779,300.838043 732.729858,303.319397 
	C729.257568,304.486755 725.818787,305.081635 722.973206,302.119110 
	C720.236938,299.270508 720.301147,295.870941 721.561890,292.328949 
	C724.569397,283.879578 730.403809,277.416931 736.962463,271.780914 
	C762.513367,249.824448 791.958069,237.965164 825.974243,238.722061 
	C833.545959,238.890549 840.685486,241.139511 847.419495,244.595261 
	C850.834839,246.347900 852.713623,249.005859 852.345886,253.036667 
	C851.977295,257.076141 848.801208,257.936615 845.802368,258.914337 
	C837.355713,261.668335 828.326111,260.877197 819.783325,263.116272 
	C813.356567,264.800781 806.905151,266.391296 800.085999,268.145508 
z"/>
</svg>